# Blender v2.79 (sub 0) OBJ File: ''
# www.blender.org
mtllib pointy_stickobj.mtl
o Cone
v 0.049778 1.029394 0.431032
v 0.051777 1.029394 0.431229
v 0.053699 1.029394 0.431812
v 0.055470 1.029394 0.432759
v 0.057022 1.029394 0.434032
v 0.058296 1.029394 0.435585
v 0.059243 1.029394 0.437356
v 0.059826 1.029394 0.439278
v 0.060023 1.029394 0.441276
v 0.059826 1.029394 0.443275
v 0.059243 1.029394 0.445196
v 0.058296 1.029394 0.446967
v 0.057022 1.029394 0.448520
v 0.055470 1.029394 0.449794
v 0.053699 1.029394 0.450740
v 0.051777 1.029394 0.451323
v 0.049778 1.029394 0.451520
v 0.047780 1.029394 0.451323
v 0.045858 1.029394 0.450740
v 0.044087 1.029394 0.449794
v 0.042535 1.029394 0.448520
v 0.041261 1.029394 0.446967
v 0.040314 1.029394 0.445196
v 0.049778 1.270673 0.441276
v 0.039731 1.029394 0.443275
v 0.039534 1.029394 0.441276
v 0.039731 1.029394 0.439278
v 0.040314 1.029394 0.437356
v 0.041261 1.029394 0.435585
v 0.042535 1.029394 0.434032
v 0.044087 1.029394 0.432759
v 0.045858 1.029394 0.431812
v 0.047780 1.029394 0.431229
v 0.049779 -0.115776 0.431032
v 0.051777 -0.115776 0.431229
v 0.053699 -0.115776 0.431812
v 0.055470 -0.115776 0.432759
v 0.057022 -0.115776 0.434032
v 0.058296 -0.115776 0.435585
v 0.059243 -0.115776 0.437356
v 0.059826 -0.115776 0.439278
v 0.060023 -0.115776 0.441276
v 0.059826 -0.115776 0.443275
v 0.059243 -0.115776 0.445196
v 0.058296 -0.115776 0.446967
v 0.057022 -0.115776 0.448520
v 0.055470 -0.115776 0.449794
v 0.053699 -0.115776 0.450740
v 0.051777 -0.115776 0.451323
v 0.049779 -0.115776 0.451520
v 0.047780 -0.115776 0.451323
v 0.045858 -0.115776 0.450740
v 0.044087 -0.115776 0.449794
v 0.042535 -0.115776 0.448520
v 0.041261 -0.115776 0.446967
v 0.040314 -0.115776 0.445196
v 0.039731 -0.115776 0.443275
v 0.039534 -0.115776 0.441276
v 0.039731 -0.115776 0.439278
v 0.040314 -0.115776 0.437356
v 0.041261 -0.115776 0.435585
v 0.042535 -0.115776 0.434032
v 0.044087 -0.115776 0.432759
v 0.045858 -0.115776 0.431812
v 0.047780 -0.115776 0.431229
vn 0.0979 0.0422 -0.9943
vn 0.2900 0.0422 -0.9561
vn 0.4710 0.0422 -0.8811
vn 0.6338 0.0422 -0.7723
vn 0.7723 0.0422 -0.6338
vn 0.8811 0.0422 -0.4710
vn 0.9561 0.0422 -0.2900
vn 0.9943 0.0422 -0.0979
vn 0.9943 0.0422 0.0979
vn 0.9561 0.0422 0.2900
vn 0.8811 0.0422 0.4710
vn 0.7723 0.0422 0.6338
vn 0.6338 0.0422 0.7723
vn 0.4710 0.0422 0.8811
vn 0.2900 0.0422 0.9561
vn 0.0979 0.0422 0.9943
vn -0.0979 0.0422 0.9943
vn -0.2900 0.0422 0.9561
vn -0.4710 0.0422 0.8811
vn -0.6338 0.0422 0.7723
vn -0.7723 0.0422 0.6338
vn -0.8811 0.0422 0.4710
vn -0.9561 0.0422 0.2900
vn -0.9943 0.0422 0.0979
vn -0.9943 0.0422 -0.0979
vn -0.9561 0.0422 -0.2900
vn -0.8811 0.0422 -0.4710
vn -0.7723 0.0422 -0.6338
vn -0.6338 0.0422 -0.7723
vn -0.4710 0.0422 -0.8811
vn -0.2900 0.0422 -0.9561
vn -0.0979 0.0422 -0.9943
vn -0.8819 -0.0000 -0.4714
vn 0.0000 -1.0000 0.0000
vn -0.7730 0.0000 0.6344
vn 0.9952 0.0000 -0.0980
vn 0.2903 0.0000 0.9569
vn -0.7730 0.0000 -0.6344
vn -0.8819 -0.0000 0.4714
vn 0.2903 0.0000 -0.9569
vn 0.9952 0.0000 0.0980
vn 0.0980 0.0000 0.9952
vn -0.6344 -0.0000 -0.7730
vn 0.4714 0.0000 -0.8819
vn 0.9569 0.0000 0.2903
vn -0.9569 -0.0000 0.2903
vn -0.0980 -0.0000 0.9952
vn -0.4714 0.0000 -0.8819
vn 0.6344 0.0000 -0.7730
vn 0.8819 0.0000 0.4714
vn -0.9952 -0.0000 0.0980
vn -0.2903 -0.0000 0.9569
vn -0.2903 -0.0000 -0.9569
vn 0.7730 0.0000 -0.6344
vn -0.0980 -0.0000 -0.9952
vn 0.7730 0.0000 0.6344
vn -0.9952 -0.0000 -0.0980
vn -0.4714 -0.0000 0.8819
vn 0.8819 0.0000 -0.4714
vn 0.6344 0.0000 0.7730
vn -0.9569 -0.0000 -0.2903
vn -0.6344 -0.0000 0.7730
vn 0.9569 0.0000 -0.2903
vn 0.0980 0.0000 -0.9952
vn 0.4714 0.0000 0.8819
usemtl None
s off
f 1//1 24//1 2//1
f 2//2 24//2 3//2
f 3//3 24//3 4//3
f 4//4 24//4 5//4
f 5//5 24//5 6//5
f 6//6 24//6 7//6
f 7//7 24//7 8//7
f 8//8 24//8 9//8
f 9//9 24//9 10//9
f 10//10 24//10 11//10
f 11//11 24//11 12//11
f 12//12 24//12 13//12
f 13//13 24//13 14//13
f 14//14 24//14 15//14
f 15//15 24//15 16//15
f 16//16 24//16 17//16
f 17//17 24//17 18//17
f 18//18 24//18 19//18
f 19//19 24//19 20//19
f 20//20 24//20 21//20
f 21//21 24//21 22//21
f 22//22 24//22 23//22
f 23//23 24//23 25//23
f 25//24 24//24 26//24
f 26//25 24//25 27//25
f 27//26 24//26 28//26
f 28//27 24//27 29//27
f 29//28 24//28 30//28
f 30//29 24//29 31//29
f 31//30 24//30 32//30
f 32//31 24//31 33//31
f 33//32 24//32 1//32
f 28//33 29//33 61//33 60//33
f 34//34 35//34 36//34 37//34 38//34 39//34 40//34 41//34 42//34 43//34 44//34 45//34 46//34 47//34 48//34 49//34 50//34 51//34 52//34 53//34 54//34 55//34 56//34 57//34 58//34 59//34 60//34 61//34 62//34 63//34 64//34 65//34
f 21//35 22//35 55//35 54//35
f 8//36 9//36 42//36 41//36
f 15//37 16//37 49//37 48//37
f 29//38 30//38 62//38 61//38
f 22//39 23//39 56//39 55//39
f 2//40 3//40 36//40 35//40
f 9//41 10//41 43//41 42//41
f 16//42 17//42 50//42 49//42
f 30//43 31//43 63//43 62//43
f 3//44 4//44 37//44 36//44
f 10//45 11//45 44//45 43//45
f 23//46 25//46 57//46 56//46
f 17//47 18//47 51//47 50//47
f 31//48 32//48 64//48 63//48
f 4//49 5//49 38//49 37//49
f 11//50 12//50 45//50 44//50
f 25//51 26//51 58//51 57//51
f 18//52 19//52 52//52 51//52
f 32//53 33//53 65//53 64//53
f 5//54 6//54 39//54 38//54
f 33//55 1//55 34//55 65//55
f 12//56 13//56 46//56 45//56
f 26//57 27//57 59//57 58//57
f 19//58 20//58 53//58 52//58
f 6//59 7//59 40//59 39//59
f 13//60 14//60 47//60 46//60
f 27//61 28//61 60//61 59//61
f 20//62 21//62 54//62 53//62
f 7//63 8//63 41//63 40//63
f 1//64 2//64 35//64 34//64
f 14//65 15//65 48//65 47//65
